<svg xmlns="http://www.w3.org/2000/svg" xmlns:xlink="http://www.w3.org/1999/xlink" width="500" zoomAndPan="magnify" viewBox="0 0 375 374.999991" height="500" preserveAspectRatio="xMidYMid meet" version="1.0"><defs><g/><clipPath id="ec05b0a0ca"><path d="M 141 100.875 L 236 100.875 L 236 185 L 141 185 Z M 141 100.875 " clip-rule="nonzero"/></clipPath><clipPath id="eca4e775e3"><path d="M 93.605469 113 L 281 113 L 281 194.625 L 93.605469 194.625 Z M 93.605469 113 " clip-rule="nonzero"/></clipPath></defs><rect x="-37.5" width="450" fill="#ffffff" y="-37.499999" height="449.999989" fill-opacity="1"/><rect x="-37.5" width="450" fill="#f2f2f2" y="-37.499999" height="449.999989" fill-opacity="1"/><g clip-path="url(#ec05b0a0ca)"><path fill="#ff8600" d="M 235.367188 147.847656 C 235.367188 173.800781 214.394531 184.261719 188.507812 184.261719 C 162.621094 184.261719 141.648438 173.800781 141.648438 147.847656 C 141.648438 121.898438 162.621094 100.875 188.507812 100.875 C 214.394531 100.875 235.367188 121.898438 235.367188 147.847656 Z M 235.367188 147.847656 " fill-opacity="1" fill-rule="nonzero"/></g><path fill="#ffffff" d="M 122.886719 161.328125 L 130.710938 151.671875 L 135.730469 161.730469 L 152.988281 150.566406 L 160.414062 135.878906 L 166.03125 143.625 L 191.417969 115.058594 L 197.238281 121.191406 L 203.558594 124.8125 L 211.183594 137.691406 L 222.320312 145.738281 L 231.152344 158.109375 L 240.785156 150.0625 L 250.015625 160.324219 L 258.042969 165.957031 L 270.886719 182.855469 L 219.714844 189.089844 L 121.78125 183.457031 Z M 122.886719 161.328125 " fill-opacity="1" fill-rule="nonzero"/><g clip-path="url(#eca4e775e3)"><path fill="#000000" d="M 237.171875 150.566406 L 240.082031 147.246094 C 240.183594 147.144531 240.28125 147.144531 240.382812 147.246094 C 243.695312 151.371094 246.804688 155.191406 249.714844 158.914062 C 250.117188 159.417969 250.515625 159.820312 251.121094 160.222656 C 252.925781 161.328125 254.730469 162.433594 256.539062 163.542969 C 258.144531 164.546875 259.046875 165.957031 260.351562 167.566406 C 267.273438 176.515625 274.097656 185.46875 280.921875 194.421875 C 281.019531 194.523438 281.019531 194.625 280.820312 194.625 C 265.167969 194.523438 110.84375 194.523438 93.789062 194.625 C 93.6875 194.625 93.6875 194.625 93.789062 194.523438 C 99.207031 187.582031 104.523438 180.640625 109.84375 173.699219 C 110.84375 172.394531 111.949219 171.085938 113.152344 169.777344 C 118.972656 163.441406 124.691406 157.101562 130.511719 150.765625 C 130.511719 150.664062 130.613281 150.664062 130.710938 150.765625 L 135.328125 159.117188 C 135.328125 159.117188 135.429688 159.117188 135.429688 159.117188 L 138.738281 155.796875 L 141.648438 154.789062 C 141.75 154.789062 141.75 154.6875 141.851562 154.589844 L 145.964844 148.957031 C 146.265625 148.554688 146.667969 148.152344 147.167969 147.847656 C 148.671875 146.84375 150.179688 145.738281 151.882812 144.628906 C 152.386719 144.328125 152.785156 143.925781 153.089844 143.523438 C 155.496094 140.40625 158.003906 137.1875 160.414062 133.96875 C 160.414062 133.867188 160.511719 133.867188 160.613281 133.96875 L 164.929688 141.3125 C 164.929688 141.410156 165.027344 141.410156 165.128906 141.3125 C 167.4375 139.199219 169.746094 137.1875 172.152344 135.175781 C 173.65625 133.96875 174.863281 131.652344 175.964844 130.042969 C 176.265625 129.640625 176.566406 129.339844 176.96875 129.039062 C 178.273438 128.234375 180.480469 127.027344 181.484375 125.820312 C 184.695312 121.59375 187.90625 117.371094 191.21875 113.246094 C 191.21875 113.246094 191.316406 113.144531 191.417969 113.246094 C 192.824219 114.753906 194.328125 116.464844 195.933594 118.375 C 196.535156 119.082031 197.238281 119.785156 198.039062 120.289062 C 199.945312 121.394531 201.851562 122.5 203.757812 123.605469 C 204.058594 123.808594 204.359375 124.210938 204.761719 124.914062 C 206.871094 128.535156 208.976562 132.054688 211.183594 135.679688 C 211.585938 136.28125 212.085938 136.785156 212.589844 137.289062 C 215.597656 139.601562 218.710938 141.8125 221.820312 144.027344 C 222.222656 144.328125 222.621094 144.832031 222.925781 145.335938 C 225.03125 149.457031 228.542969 152.980469 231.351562 156.699219 C 231.351562 156.699219 231.453125 156.800781 231.554688 156.699219 Z M 190.3125 140.003906 C 190.3125 140.304688 190.214844 140.304688 190.113281 140.003906 L 188.308594 136.179688 C 188.207031 135.980469 188.105469 135.980469 188.105469 136.28125 L 187.402344 139.703125 C 187.402344 139.800781 187.402344 139.902344 187.402344 140.003906 C 188.808594 143.421875 190.214844 146.84375 191.617188 150.261719 C 192.722656 152.777344 193.222656 155.492188 193.824219 158.210938 C 193.925781 158.714844 194.125 159.117188 194.429688 159.519531 C 196.335938 162.234375 198.140625 164.949219 200.046875 167.566406 C 200.148438 167.664062 200.246094 167.867188 200.246094 168.066406 L 200.246094 177.121094 C 200.246094 177.222656 200.246094 177.320312 200.347656 177.421875 L 204.359375 183.359375 C 204.359375 183.457031 204.460938 183.457031 204.5625 183.359375 L 205.664062 181.847656 C 205.664062 181.847656 205.664062 181.746094 205.664062 181.648438 C 204.863281 180.238281 204.160156 178.929688 203.359375 177.523438 C 203.15625 177.222656 203.058594 176.820312 203.058594 176.417969 C 202.855469 170.683594 202.554688 165.050781 202.253906 159.316406 C 202.152344 158.308594 202.054688 157.203125 201.851562 156.199219 C 200.75 150.96875 199.242188 143.824219 197.4375 134.570312 C 197.4375 134.46875 197.4375 134.371094 197.4375 134.269531 C 197.4375 134.269531 197.539062 134.269531 197.539062 134.269531 C 200.347656 140.808594 203.058594 147.445312 205.867188 154.085938 C 206.96875 156.699219 207.773438 157.808594 209.679688 160.421875 C 210.382812 161.429688 210.984375 162.335938 211.484375 163.441406 C 212.691406 166.054688 213.992188 168.570312 215.5 170.984375 C 215.5 170.984375 215.597656 170.984375 215.597656 170.984375 C 217.105469 169.175781 218.710938 167.363281 220.316406 165.554688 C 220.714844 165.152344 221.019531 164.75 221.320312 164.648438 C 224.128906 162.535156 226.9375 160.421875 229.546875 158.308594 C 229.648438 158.210938 229.648438 158.007812 229.546875 157.90625 C 227.539062 155.394531 225.632812 152.980469 223.625 150.566406 C 222.625 149.257812 221.921875 148.050781 221.21875 146.640625 C 221.117188 146.339844 220.917969 146.140625 220.714844 146.039062 L 210.382812 138.496094 C 210.179688 138.394531 210.082031 138.191406 209.980469 138.09375 L 202.757812 126.019531 C 202.554688 125.71875 202.355469 125.417969 202.054688 125.316406 L 196.335938 121.996094 C 195.933594 121.796875 195.632812 121.496094 195.429688 121.292969 L 191.820312 117.070312 C 191.617188 116.765625 191.417969 116.867188 191.417969 117.167969 C 191.117188 120.085938 190.714844 122.902344 190.3125 125.820312 C 190.113281 127.628906 189.007812 129.640625 188.308594 131.351562 C 188.308594 131.453125 188.308594 131.554688 188.308594 131.554688 C 189.007812 134.269531 189.710938 136.984375 190.3125 139.703125 C 190.3125 139.800781 190.3125 139.902344 190.3125 140.003906 Z M 164.929688 158.3125 C 164.726562 157.808594 164.828125 157.808594 165.128906 158.210938 L 170.746094 164.445312 C 171.046875 164.847656 171.351562 165.25 171.550781 165.753906 C 172.351562 167.867188 173.15625 169.980469 173.957031 171.992188 C 174.058594 172.292969 174.359375 172.695312 174.660156 172.996094 C 175.464844 173.699219 183.289062 180.539062 183.390625 180.441406 C 183.390625 180.441406 183.390625 180.339844 183.390625 180.339844 C 179.578125 173.199219 176.367188 164.546875 173.558594 156.800781 C 173.355469 156.199219 173.054688 155.695312 172.753906 155.191406 C 168.742188 149.558594 164.726562 143.925781 160.914062 138.191406 C 160.8125 137.992188 160.714844 138.09375 160.714844 138.292969 C 160.3125 142.617188 159.710938 146.84375 159.109375 151.167969 C 159.109375 151.269531 159.109375 151.371094 159.109375 151.371094 L 161.214844 154.488281 C 161.214844 154.589844 161.316406 154.6875 161.214844 154.789062 L 160.613281 158.308594 C 160.613281 158.410156 160.613281 158.511719 160.714844 158.511719 C 160.914062 158.710938 161.015625 158.8125 161.113281 159.015625 C 162.921875 161.628906 164.828125 164.144531 166.835938 166.660156 C 167.136719 167.0625 167.4375 167.566406 167.636719 168.066406 C 168.238281 169.675781 168.839844 171.285156 169.34375 172.894531 C 169.34375 172.996094 169.441406 172.996094 169.441406 172.996094 C 169.644531 172.996094 168.441406 166.660156 168.339844 166.054688 C 168.339844 165.855469 168.238281 165.554688 168.140625 165.351562 C 166.933594 162.9375 165.832031 160.625 164.929688 158.3125 Z M 185.898438 159.617188 C 187.90625 161.226562 190.011719 162.738281 192.121094 164.445312 C 192.421875 164.648438 192.621094 164.949219 192.722656 165.25 C 194.226562 168.972656 195.730469 172.695312 197.335938 176.417969 C 197.335938 176.417969 197.335938 176.515625 197.4375 176.515625 L 197.539062 176.515625 C 197.539062 176.515625 197.539062 176.515625 197.539062 176.417969 L 196.433594 164.949219 C 196.433594 164.75 196.335938 164.546875 196.132812 164.445312 L 192.421875 162.433594 C 192.320312 162.335938 192.21875 162.234375 192.121094 162.03125 C 191.417969 158.914062 190.816406 155.796875 190.214844 152.675781 C 190.113281 152.175781 189.914062 151.570312 189.710938 151.167969 C 188.609375 149.15625 187.402344 147.144531 186.199219 145.234375 C 186.199219 145.132812 186.101562 145.132812 186 145.132812 C 186 145.132812 185.898438 145.234375 185.898438 145.234375 C 185.898438 151.570312 185.898438 156.296875 185.796875 159.417969 C 185.796875 159.417969 185.898438 159.519531 185.898438 159.617188 Z M 129.007812 161.730469 C 129.40625 162.03125 129.808594 162.335938 130.109375 162.738281 C 132.015625 165.152344 133.824219 167.566406 135.628906 169.980469 C 135.828125 170.179688 136.03125 170.382812 136.332031 170.480469 L 139.945312 172.394531 C 140.144531 172.492188 140.246094 172.492188 140.042969 172.292969 C 138.941406 170.480469 137.9375 168.570312 137.132812 166.558594 C 137.035156 166.359375 137.035156 166.257812 137.234375 166.457031 C 140.144531 168.671875 142.851562 171.1875 145.363281 174.003906 C 145.5625 174.304688 145.5625 174.003906 145.5625 173.902344 C 144.660156 171.992188 143.757812 170.078125 142.851562 168.066406 C 142.753906 167.96875 142.652344 167.765625 142.550781 167.664062 L 135.027344 163.542969 C 134.925781 163.542969 134.925781 163.441406 134.828125 163.339844 C 134.726562 163.039062 134.726562 162.835938 134.625 162.535156 C 134.523438 161.628906 133.722656 160.421875 133.421875 159.820312 C 131.816406 157.101562 131.617188 155.191406 130.914062 152.578125 C 130.8125 152.375 130.8125 152.375 130.8125 152.578125 C 130.710938 153.683594 130.8125 155.796875 130.3125 156.800781 C 129.40625 158.613281 128.304688 160.324219 127.199219 161.933594 C 127.199219 162.03125 127.101562 162.132812 127.101562 162.132812 L 127.199219 164.546875 C 127.199219 164.75 127.300781 164.75 127.402344 164.546875 C 128.003906 163.640625 128.503906 162.738281 128.90625 161.730469 C 128.804688 161.628906 128.90625 161.628906 129.007812 161.730469 Z M 254.53125 165.855469 C 255.03125 166.15625 255.433594 166.457031 255.632812 166.761719 C 258.644531 170.078125 261.855469 173.296875 265.167969 176.316406 C 265.265625 176.417969 265.265625 176.417969 265.265625 176.316406 C 265.167969 176.113281 265.066406 175.914062 264.964844 175.710938 C 262.355469 172.59375 259.648438 169.476562 256.9375 166.359375 C 255.332031 164.546875 252.824219 163.140625 250.816406 161.933594 C 249.914062 161.429688 249.113281 160.726562 248.511719 160.019531 C 246.90625 158.007812 245.199219 156.097656 243.394531 154.1875 C 243.292969 154.085938 243.292969 154.1875 243.394531 154.1875 L 247.707031 162.535156 C 247.910156 162.9375 248.210938 163.238281 248.410156 163.542969 L 252.625 167.464844 C 252.824219 167.664062 253.027344 167.96875 253.125 168.269531 L 254.730469 173.601562 C 254.832031 173.902344 254.933594 174.101562 255.234375 174.203125 L 264.265625 179.433594 C 264.363281 179.535156 264.464844 179.535156 264.363281 179.433594 C 264.363281 179.433594 264.363281 179.332031 264.265625 179.332031 C 261.554688 177.019531 258.945312 174.707031 256.4375 172.394531 C 256.136719 172.089844 255.835938 171.6875 255.734375 171.1875 L 254.53125 165.855469 C 254.429688 165.855469 254.429688 165.855469 254.53125 165.855469 Z M 222.320312 166.054688 C 220.515625 169.980469 218.609375 173.800781 216.601562 177.523438 C 216.503906 177.722656 216.503906 177.722656 216.703125 177.625 L 221.621094 174.90625 C 221.820312 174.808594 221.921875 174.605469 222.019531 174.40625 L 223.828125 169.476562 C 223.828125 169.375 223.925781 169.375 224.027344 169.273438 L 228.84375 166.761719 C 229.042969 166.660156 229.144531 166.457031 229.246094 166.257812 C 229.847656 164.445312 230.75 161.128906 232.054688 159.71875 C 233.257812 158.410156 234.5625 157.203125 235.464844 155.695312 C 235.464844 155.695312 235.464844 155.59375 235.464844 155.59375 C 235.464844 155.59375 235.367188 155.59375 235.367188 155.59375 C 231.351562 158.914062 227.136719 161.832031 223.125 165.050781 C 222.722656 165.554688 222.421875 165.753906 222.320312 166.054688 Z M 211.484375 166.257812 C 209.878906 164.648438 208.175781 163.039062 206.570312 161.429688 C 206.269531 161.128906 206.269531 161.226562 206.367188 161.53125 L 211.085938 176.015625 C 211.085938 176.113281 211.183594 176.113281 211.183594 176.015625 L 213.894531 172.796875 C 213.894531 172.695312 213.992188 172.695312 213.894531 172.59375 C 213.292969 170.882812 212.691406 169.175781 212.085938 167.464844 C 211.988281 166.859375 211.785156 166.558594 211.484375 166.257812 Z M 211.484375 166.257812 " fill-opacity="1" fill-rule="nonzero"/></g><g fill="#000000" fill-opacity="1"><g transform="translate(46.315356, 250.910282)"><g><path d="M 27.921875 -1.1875 L 12.671875 -24.8125 L 12.671875 -1.1875 C 12.671875 -0.789062 12.535156 -0.492188 12.265625 -0.296875 C 12.003906 -0.0976562 11.738281 0 11.46875 0 L 5.3125 0 C 5.039062 0 4.769531 -0.0976562 4.5 -0.296875 C 4.238281 -0.492188 4.109375 -0.789062 4.109375 -1.1875 L 4.109375 -40.59375 C 4.109375 -40.988281 4.238281 -41.285156 4.5 -41.484375 C 4.769531 -41.679688 5.039062 -41.78125 5.3125 -41.78125 L 11.34375 -41.78125 C 11.601562 -41.78125 11.890625 -41.671875 12.203125 -41.453125 C 12.515625 -41.234375 12.78125 -40.945312 13 -40.59375 L 28.25 -16.453125 L 28.25 -40.59375 C 28.25 -40.988281 28.378906 -41.285156 28.640625 -41.484375 C 28.910156 -41.679688 29.179688 -41.78125 29.453125 -41.78125 L 35.625 -41.78125 C 35.882812 -41.78125 36.144531 -41.679688 36.40625 -41.484375 C 36.675781 -41.285156 36.8125 -40.988281 36.8125 -40.59375 L 36.8125 -1.1875 C 36.8125 -0.789062 36.675781 -0.492188 36.40625 -0.296875 C 36.144531 -0.0976562 35.882812 0 35.625 0 L 29.578125 0 C 28.960938 0 28.410156 -0.394531 27.921875 -1.1875 Z M 27.921875 -1.1875 "/></g></g></g><g fill="#000000" fill-opacity="1"><g transform="translate(87.237187, 250.910282)"><g><path d="M 15.125 -41.78125 L 24.015625 -41.78125 C 24.234375 -41.78125 24.453125 -41.710938 24.671875 -41.578125 C 24.890625 -41.453125 25.046875 -41.253906 25.140625 -40.984375 L 37.34375 -1.1875 C 37.34375 -0.789062 37.207031 -0.492188 36.9375 -0.296875 C 36.675781 -0.0976562 36.414062 0 36.15625 0 L 30.109375 0 C 29.492188 0 29.050781 -0.394531 28.78125 -1.1875 L 27.1875 -6.375 L 11.875 -6.375 L 10.34375 -1.1875 C 10.082031 -0.394531 9.640625 0 9.015625 0 L 2.984375 0 C 2.722656 0 2.457031 -0.0976562 2.1875 -0.296875 C 1.925781 -0.492188 1.796875 -0.789062 1.796875 -1.1875 L 14 -40.984375 C 14.082031 -41.253906 14.242188 -41.453125 14.484375 -41.578125 C 14.734375 -41.710938 14.945312 -41.78125 15.125 -41.78125 Z M 19.5625 -31.4375 L 14.265625 -14.1875 L 24.8125 -14.1875 Z M 19.5625 -31.4375 "/></g></g></g><g fill="#000000" fill-opacity="1"><g transform="translate(126.36827, 250.910282)"><g><path d="M 3.3125 -41.78125 L 30.4375 -41.78125 C 30.84375 -41.78125 31.144531 -41.644531 31.34375 -41.375 C 31.539062 -41.113281 31.640625 -40.851562 31.640625 -40.59375 L 31.640625 -35.15625 C 31.640625 -34.882812 31.539062 -34.613281 31.34375 -34.34375 C 31.144531 -34.082031 30.84375 -33.953125 30.4375 -33.953125 L 21.15625 -33.953125 L 21.15625 -1.1875 C 21.15625 -0.789062 21.019531 -0.492188 20.75 -0.296875 C 20.488281 -0.0976562 20.226562 0 19.96875 0 L 13.796875 0 C 13.523438 0 13.257812 -0.0976562 13 -0.296875 C 12.738281 -0.492188 12.609375 -0.789062 12.609375 -1.1875 L 12.609375 -33.953125 L 3.3125 -33.953125 C 2.914062 -33.953125 2.617188 -34.082031 2.421875 -34.34375 C 2.222656 -34.613281 2.125 -34.882812 2.125 -35.15625 L 2.125 -40.59375 C 2.125 -40.851562 2.222656 -41.113281 2.421875 -41.375 C 2.617188 -41.644531 2.914062 -41.78125 3.3125 -41.78125 Z M 3.3125 -41.78125 "/></g></g></g><g fill="#000000" fill-opacity="1"><g transform="translate(160.127129, 250.910282)"><g><path d="M 12.671875 -40.59375 L 12.671875 -1.1875 C 12.671875 -0.789062 12.535156 -0.492188 12.265625 -0.296875 C 12.003906 -0.0976562 11.738281 0 11.46875 0 L 5.3125 0 C 5.039062 0 4.769531 -0.0976562 4.5 -0.296875 C 4.238281 -0.492188 4.109375 -0.789062 4.109375 -1.1875 L 4.109375 -40.59375 C 4.109375 -40.988281 4.238281 -41.285156 4.5 -41.484375 C 4.769531 -41.679688 5.039062 -41.78125 5.3125 -41.78125 L 11.46875 -41.78125 C 11.738281 -41.78125 12.003906 -41.679688 12.265625 -41.484375 C 12.535156 -41.285156 12.671875 -40.988281 12.671875 -40.59375 Z M 12.671875 -40.59375 "/></g></g></g><g fill="#000000" fill-opacity="1"><g transform="translate(176.907077, 250.910282)"><g><path d="M 19.171875 -42.3125 C 22.304688 -42.3125 24.859375 -41.867188 26.828125 -40.984375 C 28.796875 -40.109375 30.34375 -39.015625 31.46875 -37.703125 C 32.59375 -36.398438 33.390625 -35.082031 33.859375 -33.75 C 34.328125 -32.425781 34.613281 -31.320312 34.71875 -30.4375 C 34.832031 -29.5625 34.890625 -29.125 34.890625 -29.125 L 34.890625 -12.671875 C 34.890625 -12.671875 34.832031 -12.226562 34.71875 -11.34375 C 34.613281 -10.457031 34.328125 -9.363281 33.859375 -8.0625 C 33.390625 -6.757812 32.59375 -5.441406 31.46875 -4.109375 C 30.34375 -2.785156 28.796875 -1.679688 26.828125 -0.796875 C 24.859375 0.0859375 22.304688 0.53125 19.171875 0.53125 C 16.023438 0.53125 13.46875 0.0859375 11.5 -0.796875 C 9.539062 -1.679688 7.992188 -2.773438 6.859375 -4.078125 C 5.734375 -5.378906 4.9375 -6.691406 4.46875 -8.015625 C 4.007812 -9.347656 3.722656 -10.457031 3.609375 -11.34375 C 3.503906 -12.226562 3.453125 -12.671875 3.453125 -12.671875 L 3.453125 -29.125 C 3.453125 -29.125 3.503906 -29.5625 3.609375 -30.4375 C 3.722656 -31.320312 4.007812 -32.425781 4.46875 -33.75 C 4.9375 -35.082031 5.734375 -36.398438 6.859375 -37.703125 C 7.992188 -39.015625 9.539062 -40.109375 11.5 -40.984375 C 13.46875 -41.867188 16.023438 -42.3125 19.171875 -42.3125 Z M 19.171875 -7.296875 C 19.703125 -7.296875 20.363281 -7.375 21.15625 -7.53125 C 21.957031 -7.6875 22.753906 -7.992188 23.546875 -8.453125 C 24.335938 -8.921875 25 -9.640625 25.53125 -10.609375 C 26.0625 -11.585938 26.328125 -12.894531 26.328125 -14.53125 L 26.328125 -27.265625 C 26.328125 -28.898438 26.0625 -30.203125 25.53125 -31.171875 C 25 -32.148438 24.335938 -32.867188 23.546875 -33.328125 C 22.753906 -33.796875 21.957031 -34.101562 21.15625 -34.25 C 20.363281 -34.40625 19.703125 -34.484375 19.171875 -34.484375 C 18.640625 -34.484375 17.972656 -34.40625 17.171875 -34.25 C 16.378906 -34.101562 15.582031 -33.796875 14.78125 -33.328125 C 13.988281 -32.867188 13.328125 -32.148438 12.796875 -31.171875 C 12.265625 -30.203125 12 -28.898438 12 -27.265625 L 12 -14.53125 C 12 -12.894531 12.265625 -11.585938 12.796875 -10.609375 C 13.328125 -9.640625 13.988281 -8.921875 14.78125 -8.453125 C 15.582031 -7.992188 16.378906 -7.6875 17.171875 -7.53125 C 17.972656 -7.375 18.640625 -7.296875 19.171875 -7.296875 Z M 19.171875 -7.296875 "/></g></g></g><g fill="#000000" fill-opacity="1"><g transform="translate(215.242279, 250.910282)"><g><path d="M 27.921875 -1.1875 L 12.671875 -24.8125 L 12.671875 -1.1875 C 12.671875 -0.789062 12.535156 -0.492188 12.265625 -0.296875 C 12.003906 -0.0976562 11.738281 0 11.46875 0 L 5.3125 0 C 5.039062 0 4.769531 -0.0976562 4.5 -0.296875 C 4.238281 -0.492188 4.109375 -0.789062 4.109375 -1.1875 L 4.109375 -40.59375 C 4.109375 -40.988281 4.238281 -41.285156 4.5 -41.484375 C 4.769531 -41.679688 5.039062 -41.78125 5.3125 -41.78125 L 11.34375 -41.78125 C 11.601562 -41.78125 11.890625 -41.671875 12.203125 -41.453125 C 12.515625 -41.234375 12.78125 -40.945312 13 -40.59375 L 28.25 -16.453125 L 28.25 -40.59375 C 28.25 -40.988281 28.378906 -41.285156 28.640625 -41.484375 C 28.910156 -41.679688 29.179688 -41.78125 29.453125 -41.78125 L 35.625 -41.78125 C 35.882812 -41.78125 36.144531 -41.679688 36.40625 -41.484375 C 36.675781 -41.285156 36.8125 -40.988281 36.8125 -40.59375 L 36.8125 -1.1875 C 36.8125 -0.789062 36.675781 -0.492188 36.40625 -0.296875 C 36.144531 -0.0976562 35.882812 0 35.625 0 L 29.578125 0 C 28.960938 0 28.410156 -0.394531 27.921875 -1.1875 Z M 27.921875 -1.1875 "/></g></g></g><g fill="#000000" fill-opacity="1"><g transform="translate(256.16411, 250.910282)"><g><path d="M 15.125 -41.78125 L 24.015625 -41.78125 C 24.234375 -41.78125 24.453125 -41.710938 24.671875 -41.578125 C 24.890625 -41.453125 25.046875 -41.253906 25.140625 -40.984375 L 37.34375 -1.1875 C 37.34375 -0.789062 37.207031 -0.492188 36.9375 -0.296875 C 36.675781 -0.0976562 36.414062 0 36.15625 0 L 30.109375 0 C 29.492188 0 29.050781 -0.394531 28.78125 -1.1875 L 27.1875 -6.375 L 11.875 -6.375 L 10.34375 -1.1875 C 10.082031 -0.394531 9.640625 0 9.015625 0 L 2.984375 0 C 2.722656 0 2.457031 -0.0976562 2.1875 -0.296875 C 1.925781 -0.492188 1.796875 -0.789062 1.796875 -1.1875 L 14 -40.984375 C 14.082031 -41.253906 14.242188 -41.453125 14.484375 -41.578125 C 14.734375 -41.710938 14.945312 -41.78125 15.125 -41.78125 Z M 19.5625 -31.4375 L 14.265625 -14.1875 L 24.8125 -14.1875 Z M 19.5625 -31.4375 "/></g></g></g><g fill="#000000" fill-opacity="1"><g transform="translate(295.295193, 250.910282)"><g><path d="M 28.71875 0 L 5.3125 0 C 5.039062 0 4.769531 -0.0976562 4.5 -0.296875 C 4.238281 -0.492188 4.109375 -0.789062 4.109375 -1.1875 L 4.109375 -40.59375 C 4.109375 -40.988281 4.238281 -41.285156 4.5 -41.484375 C 4.769531 -41.679688 5.039062 -41.78125 5.3125 -41.78125 L 11.46875 -41.78125 C 11.738281 -41.78125 12.003906 -41.679688 12.265625 -41.484375 C 12.535156 -41.285156 12.671875 -40.988281 12.671875 -40.59375 L 12.671875 -7.828125 L 28.71875 -7.828125 C 29.113281 -7.828125 29.410156 -7.691406 29.609375 -7.421875 C 29.804688 -7.160156 29.90625 -6.894531 29.90625 -6.625 L 29.90625 -1.1875 C 29.90625 -0.925781 29.804688 -0.660156 29.609375 -0.390625 C 29.410156 -0.128906 29.113281 0 28.71875 0 Z M 28.71875 0 "/></g></g></g><g fill="#000000" fill-opacity="1"><g transform="translate(101.436862, 271.231017)"><g><path d="M 1.125 -10.640625 L 3.46875 -10.640625 C 4.789062 -10.640625 5.757812 -10.351562 6.375 -9.78125 C 6.988281 -9.21875 7.296875 -8.445312 7.296875 -7.46875 C 7.296875 -6.332031 6.960938 -5.457031 6.296875 -4.84375 C 5.628906 -4.238281 4.640625 -3.9375 3.328125 -3.9375 L 2.765625 -3.9375 L 2.765625 0 L 1.125 0 Z M 3.375 -5.375 C 4.21875 -5.375 4.804688 -5.5625 5.140625 -5.9375 C 5.484375 -6.3125 5.65625 -6.765625 5.65625 -7.296875 C 5.65625 -7.859375 5.488281 -8.316406 5.15625 -8.671875 C 4.832031 -9.035156 4.285156 -9.21875 3.515625 -9.21875 L 2.765625 -9.21875 L 2.765625 -5.375 Z M 3.375 -5.375 "/></g></g></g><g fill="#000000" fill-opacity="1"><g transform="translate(113.49392, 271.231017)"><g><path d="M 5.015625 -10.65625 L 10.140625 0 L 8.28125 0 L 7.359375 -2.078125 L 2.484375 -2.078125 L 1.578125 0 L -0.234375 0 L 4.859375 -10.65625 Z M 4.296875 -6.125 L 3.140625 -3.546875 L 6.734375 -3.546875 L 5.578125 -6.109375 L 4.96875 -7.5625 L 4.9375 -7.5625 Z M 4.296875 -6.125 "/></g></g></g><g fill="#000000" fill-opacity="1"><g transform="translate(127.794115, 271.231017)"><g><path d="M 6.4375 0 L 4.296875 -4.015625 C 3.847656 -4.003906 3.453125 -4 3.109375 -4 L 2.703125 -4 L 2.703125 0 L 1.125 0 L 1.125 -10.640625 L 3.546875 -10.640625 C 4.765625 -10.640625 5.769531 -10.382812 6.5625 -9.875 C 7.351562 -9.363281 7.75 -8.539062 7.75 -7.40625 C 7.75 -6.695312 7.582031 -6.082031 7.25 -5.5625 C 6.914062 -5.050781 6.421875 -4.65625 5.765625 -4.375 L 8.3125 0 Z M 3.734375 -5.3125 C 4.679688 -5.3125 5.328125 -5.515625 5.671875 -5.921875 C 6.023438 -6.335938 6.203125 -6.828125 6.203125 -7.390625 C 6.203125 -8.648438 5.359375 -9.28125 3.671875 -9.28125 L 2.703125 -9.28125 L 2.703125 -5.3125 Z M 3.734375 -5.3125 "/></g></g></g><g fill="#000000" fill-opacity="1"><g transform="translate(141.008929, 271.231017)"><g><path d="M 3.59375 -4.765625 L 2.71875 -3.6875 L 2.71875 0 L 1.125 0 L 1.125 -10.640625 L 2.71875 -10.640625 L 2.71875 -5.890625 L 6.359375 -10.640625 L 8.3125 -10.640625 L 4.640625 -5.96875 L 8.828125 0 L 6.84375 0 Z M 3.59375 -4.765625 "/></g></g></g><g fill="#000000" fill-opacity="1"><g transform="translate(154.006662, 271.231017)"><g/></g></g><g fill="#000000" fill-opacity="1"><g transform="translate(161.939263, 271.231017)"><g><path d="M 1.125 -10.640625 L 3.6875 -10.640625 C 5.832031 -10.640625 7.332031 -10.128906 8.1875 -9.109375 C 9.039062 -8.097656 9.46875 -6.894531 9.46875 -5.5 C 9.46875 -4.519531 9.28125 -3.617188 8.90625 -2.796875 C 8.539062 -1.972656 7.9375 -1.300781 7.09375 -0.78125 C 6.25 -0.257812 5.144531 0 3.78125 0 L 1.125 0 Z M 3.953125 -1.4375 C 5.285156 -1.4375 6.25 -1.8125 6.84375 -2.5625 C 7.445312 -3.320312 7.75 -4.273438 7.75 -5.421875 C 7.75 -6.546875 7.445312 -7.457031 6.84375 -8.15625 C 6.238281 -8.863281 5.273438 -9.21875 3.953125 -9.21875 L 2.75 -9.21875 L 2.75 -1.4375 Z M 3.953125 -1.4375 "/></g></g></g><g fill="#000000" fill-opacity="1"><g transform="translate(176.282881, 271.231017)"><g><path d="M 1.3125 -10.640625 L 2.9375 -10.640625 L 2.9375 0 L 1.3125 0 Z M 1.3125 -10.640625 "/></g></g></g><g fill="#000000" fill-opacity="1"><g transform="translate(184.9246, 271.231017)"><g><path d="M 6.4375 0 L 4.296875 -4.015625 C 3.847656 -4.003906 3.453125 -4 3.109375 -4 L 2.703125 -4 L 2.703125 0 L 1.125 0 L 1.125 -10.640625 L 3.546875 -10.640625 C 4.765625 -10.640625 5.769531 -10.382812 6.5625 -9.875 C 7.351562 -9.363281 7.75 -8.539062 7.75 -7.40625 C 7.75 -6.695312 7.582031 -6.082031 7.25 -5.5625 C 6.914062 -5.050781 6.421875 -4.65625 5.765625 -4.375 L 8.3125 0 Z M 3.734375 -5.3125 C 4.679688 -5.3125 5.328125 -5.515625 5.671875 -5.921875 C 6.023438 -6.335938 6.203125 -6.828125 6.203125 -7.390625 C 6.203125 -8.648438 5.359375 -9.28125 3.671875 -9.28125 L 2.703125 -9.28125 L 2.703125 -5.3125 Z M 3.734375 -5.3125 "/></g></g></g><g fill="#000000" fill-opacity="1"><g transform="translate(198.13941, 271.231017)"><g><path d="M 1.109375 -10.640625 L 5.765625 -10.640625 L 5.765625 -9.21875 L 2.71875 -9.21875 L 2.71875 -6.28125 L 5.1875 -6.28125 L 5.1875 -4.828125 L 2.71875 -4.828125 L 2.71875 -1.4375 L 6.25 -1.4375 L 6.25 0 L 1.109375 0 Z M 1.109375 -10.640625 "/></g></g></g><g fill="#000000" fill-opacity="1"><g transform="translate(209.284752, 271.231017)"><g><path d="M 5.96875 0.09375 C 4.863281 0.09375 3.90625 -0.148438 3.09375 -0.640625 C 2.289062 -1.128906 1.675781 -1.785156 1.25 -2.609375 C 0.832031 -3.429688 0.625 -4.34375 0.625 -5.34375 C 0.625 -6.394531 0.851562 -7.332031 1.3125 -8.15625 C 1.769531 -8.988281 2.410156 -9.640625 3.234375 -10.109375 C 4.066406 -10.578125 5.007812 -10.8125 6.0625 -10.8125 C 6.53125 -10.8125 6.96875 -10.757812 7.375 -10.65625 C 7.789062 -10.550781 8.132812 -10.429688 8.40625 -10.296875 C 8.675781 -10.171875 8.851562 -10.066406 8.9375 -9.984375 L 8.234375 -8.53125 C 7.640625 -9.050781 6.875 -9.3125 5.9375 -9.3125 C 5.269531 -9.3125 4.664062 -9.144531 4.125 -8.8125 C 3.582031 -8.488281 3.15625 -8.023438 2.84375 -7.421875 C 2.539062 -6.816406 2.390625 -6.113281 2.390625 -5.3125 C 2.390625 -4.570312 2.523438 -3.90625 2.796875 -3.3125 C 3.078125 -2.71875 3.476562 -2.242188 4 -1.890625 C 4.53125 -1.546875 5.164062 -1.375 5.90625 -1.375 C 6.75 -1.375 7.566406 -1.613281 8.359375 -2.09375 L 8.84375 -0.71875 C 8.625 -0.53125 8.234375 -0.347656 7.671875 -0.171875 C 7.109375 0.00390625 6.539062 0.09375 5.96875 0.09375 Z M 5.96875 0.09375 "/></g></g></g><g fill="#000000" fill-opacity="1"><g transform="translate(223.063957, 271.231017)"><g><path d="M 3.15625 -9.21875 L 0.4375 -9.21875 L 0.4375 -10.640625 L 7.515625 -10.640625 L 7.515625 -9.21875 L 4.765625 -9.21875 L 4.765625 0 L 3.15625 0 Z M 3.15625 -9.21875 "/></g></g></g><g fill="#000000" fill-opacity="1"><g transform="translate(235.39598, 271.231017)"><g><path d="M 6.015625 0.140625 C 5.054688 0.140625 4.164062 -0.0820312 3.34375 -0.53125 C 2.53125 -0.976562 1.882812 -1.613281 1.40625 -2.4375 C 0.925781 -3.269531 0.6875 -4.238281 0.6875 -5.34375 C 0.6875 -6.445312 0.925781 -7.410156 1.40625 -8.234375 C 1.882812 -9.066406 2.53125 -9.703125 3.34375 -10.140625 C 4.164062 -10.585938 5.054688 -10.8125 6.015625 -10.8125 C 6.984375 -10.8125 7.875 -10.585938 8.6875 -10.140625 C 9.5 -9.703125 10.144531 -9.066406 10.625 -8.234375 C 11.113281 -7.410156 11.359375 -6.445312 11.359375 -5.34375 C 11.359375 -4.238281 11.113281 -3.269531 10.625 -2.4375 C 10.144531 -1.613281 9.5 -0.976562 8.6875 -0.53125 C 7.875 -0.0820312 6.984375 0.140625 6.015625 0.140625 Z M 6.015625 -1.3125 C 6.679688 -1.3125 7.289062 -1.46875 7.84375 -1.78125 C 8.394531 -2.09375 8.832031 -2.550781 9.15625 -3.15625 C 9.476562 -3.757812 9.640625 -4.484375 9.640625 -5.328125 C 9.640625 -6.171875 9.476562 -6.894531 9.15625 -7.5 C 8.832031 -8.101562 8.394531 -8.554688 7.84375 -8.859375 C 7.300781 -9.171875 6.691406 -9.328125 6.015625 -9.328125 C 5.335938 -9.328125 4.722656 -9.171875 4.171875 -8.859375 C 3.628906 -8.554688 3.195312 -8.101562 2.875 -7.5 C 2.5625 -6.894531 2.40625 -6.171875 2.40625 -5.328125 C 2.40625 -4.484375 2.566406 -3.757812 2.890625 -3.15625 C 3.222656 -2.550781 3.664062 -2.09375 4.21875 -1.78125 C 4.769531 -1.46875 5.367188 -1.3125 6.015625 -1.3125 Z M 6.015625 -1.3125 "/></g></g></g><g fill="#000000" fill-opacity="1"><g transform="translate(251.823539, 271.231017)"><g><path d="M 6.4375 0 L 4.296875 -4.015625 C 3.847656 -4.003906 3.453125 -4 3.109375 -4 L 2.703125 -4 L 2.703125 0 L 1.125 0 L 1.125 -10.640625 L 3.546875 -10.640625 C 4.765625 -10.640625 5.769531 -10.382812 6.5625 -9.875 C 7.351562 -9.363281 7.75 -8.539062 7.75 -7.40625 C 7.75 -6.695312 7.582031 -6.082031 7.25 -5.5625 C 6.914062 -5.050781 6.421875 -4.65625 5.765625 -4.375 L 8.3125 0 Z M 3.734375 -5.3125 C 4.679688 -5.3125 5.328125 -5.515625 5.671875 -5.921875 C 6.023438 -6.335938 6.203125 -6.828125 6.203125 -7.390625 C 6.203125 -8.648438 5.359375 -9.28125 3.671875 -9.28125 L 2.703125 -9.28125 L 2.703125 -5.3125 Z M 3.734375 -5.3125 "/></g></g></g><g fill="#000000" fill-opacity="1"><g transform="translate(265.038357, 271.231017)"><g><path d="M 3.453125 -4.96875 L -0.234375 -10.640625 L 1.703125 -10.640625 L 4.265625 -6.4375 L 6.828125 -10.640625 L 8.75 -10.640625 L 5.078125 -4.9375 L 5.078125 0 L 3.453125 0 Z M 3.453125 -4.96875 "/></g></g></g></svg>